<?xml version="1.0" encoding="UTF-8" standalone="no" ?>
<!DOCTYPE svg PUBLIC "-//W3C//DTD SVG 1.1//EN" "http://www.w3.org/Graphics/SVG/1.1/DTD/svg11.dtd">
<svg xmlns="http://www.w3.org/2000/svg" xmlns:xlink="http://www.w3.org/1999/xlink" version="1.1" width="296.0059222412109" height="176.40312" xml:space="preserve">
<desc>Created with Fabric.js 1.6.0-rc.1</desc>
<defs></defs>
<g style="stroke: none; stroke-width: 1; stroke-dasharray: none; stroke-linecap: butt; stroke-linejoin: miter; stroke-miterlimit: 10; fill: none; fill-rule: nonzero; opacity: 1;" transform="translate(10 10) scale(0.29 0.29)" >
  <rect x="306.74" y="406.86" rx="0" ry="0" width="17.65" height="64.2" style="stroke: none; stroke-width: 1; stroke-dasharray: none; stroke-linecap: butt; stroke-linejoin: miter; stroke-miterlimit: 10; fill: #242D3C; fill-rule: nonzero; opacity: 1;" transform=" matrix(1 0 0 1 0 0) "/>
  <rect x="187.57" y="406.86" rx="0" ry="0" width="17.65" height="64.2" style="stroke: none; stroke-width: 1; stroke-dasharray: none; stroke-linecap: butt; stroke-linejoin: miter; stroke-miterlimit: 10; fill: #242D3C; fill-rule: nonzero; opacity: 1;" transform=" matrix(1 0 0 1 0 0) "/>
  <rect x="175.74" y="398.06" rx="0" ry="0" width="160.51" height="17.65" style="stroke: none; stroke-width: 1; stroke-dasharray: none; stroke-linecap: butt; stroke-linejoin: miter; stroke-miterlimit: 10; fill: #242D3C; fill-rule: nonzero; opacity: 1;" transform=" matrix(1 0 0 1 0 0) "/>
  <rect x="175.74" y="430.16" rx="0" ry="0" width="160.51" height="17.65" style="stroke: none; stroke-width: 1; stroke-dasharray: none; stroke-linecap: butt; stroke-linejoin: miter; stroke-miterlimit: 10; fill: #242D3C; fill-rule: nonzero; opacity: 1;" transform=" matrix(1 0 0 1 0 0) "/>
  <rect x="175.74" y="462.26" rx="0" ry="0" width="160.51" height="17.65" style="stroke: none; stroke-width: 1; stroke-dasharray: none; stroke-linecap: butt; stroke-linejoin: miter; stroke-miterlimit: 10; fill: #242D3C; fill-rule: nonzero; opacity: 1;" transform=" matrix(1 0 0 1 0 0) "/>
  <rect x="220.31" y="494.34" rx="0" ry="0" width="71.33" height="17.66" style="stroke: none; stroke-width: 1; stroke-dasharray: none; stroke-linecap: butt; stroke-linejoin: miter; stroke-miterlimit: 10; fill: #242D3C; fill-rule: nonzero; opacity: 1;" transform=" matrix(1 0 0 1 0 0) "/>
  <path d="M 324.382 415.7 H 187.556 v -8.827 c 0 -30.802 -13.094 -60.411 -35.924 -81.226 l -1.129 -0.988 c -0.991 -0.865 -1.958 -1.718 -2.926 -2.516 l -0.333 -0.289 c -33.426 -30.566 -52.595 -73.992 -52.595 -119.148 c 0 -88.965 72.374 -161.339 161.334 -161.339 c 88.973 0 161.352 72.374 161.352 161.339 c 0 45.128 -19.185 88.553 -52.639 119.148 l -0.302 0.266 c -1.014 0.847 -2.033 1.761 -3.059 2.685 l -1.014 0.911 c -22.817 20.7 -35.935 50.301 -35.935 81.16 v 8.824 H 324.382 z M 204.902 398.046 h 102.136 c 2.281 -32.602 17.106 -63.357 41.469 -85.463 l 1.029 -0.922 c 1.134 -1.019 2.263 -2.022 3.382 -2.967 c 29.716 -27.251 46.758 -65.874 46.758 -105.992 c 0 -79.227 -64.463 -143.685 -143.695 -143.685 c -79.227 0 -143.677 64.458 -143.677 143.685 c 0 40.143 17.014 78.756 46.697 105.976 c 1.039 0.865 2.081 1.777 3.141 2.706 l 1.234 1.078 C 187.819 334.75 202.621 365.509 204.902 398.046 z" style="stroke: none; stroke-width: 1; stroke-dasharray: none; stroke-linecap: butt; stroke-linejoin: miter; stroke-miterlimit: 10; fill: #242D3C; fill-rule: nonzero; opacity: 1;" transform=" matrix(1 0 0 1 0 0) " stroke-linecap="round" />
  <rect x="247.16" y="364.5" rx="0" ry="0" width="17.65" height="42.37" style="stroke: none; stroke-width: 1; stroke-dasharray: none; stroke-linecap: butt; stroke-linejoin: miter; stroke-miterlimit: 10; fill: #242D3C; fill-rule: nonzero; opacity: 1;" transform=" matrix(1 0 0 1 0 0) "/>
  <path d="M 313.843 293.946 c 2.885 1.224 6.075 1.879 9.393 1.879 c 13.663 0 24.709 -11.052 24.709 -24.694 c 0 -1.894 -0.218 -3.727 -0.609 -5.45 c 5.97 -0.246 11.901 -2.673 16.456 -7.227 c 9.152 -9.132 9.638 -23.616 1.444 -33.334 c 8.463 -3.907 14.331 -12.48 14.331 -22.42 c 0 -9.951 -5.868 -18.511 -14.331 -22.426 c 8.192 -9.7 7.708 -24.197 -1.444 -33.324 c -4.552 -4.564 -10.486 -6.976 -16.456 -7.204 c 0.392 -1.764 0.609 -3.599 0.609 -5.489 c 0 -13.642 -11.046 -24.714 -24.709 -24.714 c -3.318 0 -6.508 0.694 -9.393 1.887 c -2.253 -11.369 -12.234 -19.95 -24.251 -19.95 c -13.652 0 -24.709 11.059 -24.709 24.694 v 173.038 c 0 13.652 11.057 24.694 24.709 24.694 C 301.606 313.909 311.6 305.318 313.843 293.946 z" style="stroke: none; stroke-width: 1; stroke-dasharray: none; stroke-linecap: butt; stroke-linejoin: miter; stroke-miterlimit: 10; fill: #F96232; fill-rule: nonzero; opacity: 0;" transform=" matrix(1 0 0 1 0 0) " stroke-linecap="round" />
  <path d="M 198.144 293.946 c -2.906 1.224 -6.085 1.879 -9.398 1.879 c -13.658 0 -24.712 -11.052 -24.712 -24.694 c 0 -1.894 0.212 -3.727 0.602 -5.45 c -5.96 -0.246 -11.873 -2.673 -16.453 -7.227 c -9.116 -9.132 -9.608 -23.616 -1.439 -33.334 c -8.471 -3.907 -14.346 -12.48 -14.346 -22.42 c 0 -9.951 5.878 -18.511 14.346 -22.426 c -8.169 -9.7 -7.677 -24.197 1.439 -33.324 c 4.582 -4.564 10.493 -6.976 16.453 -7.204 c -0.389 -1.764 -0.602 -3.599 -0.602 -5.489 c 0 -13.642 11.054 -24.714 24.712 -24.714 c 3.31 0 6.492 0.694 9.398 1.887 c 2.214 -11.369 12.221 -19.95 24.261 -19.95 c 13.652 0 24.681 11.059 24.681 24.694 v 173.038 c 0 13.652 -11.028 24.694 -24.681 24.694 C 210.365 313.909 200.358 305.318 198.144 293.946 z" style="stroke: none; stroke-width: 1; stroke-dasharray: none; stroke-linecap: butt; stroke-linejoin: miter; stroke-miterlimit: 10; fill: #F96232; fill-rule: nonzero; opacity: 0;" transform=" matrix(1 0 0 1 0 0) " stroke-linecap="round" />
  <path d="M 354.424 379.906 l -8.589 -15.424 c 4.964 -2.76 9.851 -5.786 14.531 -8.991 l 9.976 14.569 C 365.209 373.573 359.856 376.888 354.424 379.906 z M 157.235 379.763 c -5.417 -3.028 -10.77 -6.349 -15.892 -9.869 l 9.994 -14.556 c 4.68 3.213 9.564 6.244 14.513 9.011 L 157.235 379.763 z M 385.275 358.794 L 374.013 345.2 c 4.362 -3.617 8.622 -7.488 12.641 -11.492 l 12.465 12.508 C 394.713 350.602 390.057 354.836 385.275 358.794 z M 126.425 358.597 c -4.767 -3.965 -9.416 -8.207 -13.824 -12.618 l 12.495 -12.475 c 4.022 4.024 8.266 7.898 12.618 11.515 L 126.425 358.597 z M 411.758 332.41 l -13.563 -11.31 c 3.633 -4.349 7.107 -8.929 10.335 -13.609 l 14.538 10.017 C 419.538 322.634 415.731 327.646 411.758 332.41 z M 100.001 332.147 c -3.965 -4.774 -7.764 -9.797 -11.282 -14.925 l 14.561 -9.989 c 3.21 4.682 6.676 9.272 10.301 13.632 L 100.001 332.147 z M 432.957 301.621 l -15.404 -8.635 c 2.775 -4.948 5.345 -10.081 7.644 -15.27 l 16.141 7.171 C 438.817 290.565 435.998 296.197 432.957 301.621 z M 78.863 301.319 c -3.031 -5.425 -5.837 -11.059 -8.358 -16.755 l 16.146 -7.14 c 2.299 5.197 4.861 10.34 7.626 15.283 L 78.863 301.319 z M 448.125 267.443 l -16.73 -5.635 c 1.807 -5.361 3.382 -10.885 4.687 -16.417 l 17.185 4.052 C 451.832 255.51 450.101 261.562 448.125 267.443 z M 63.736 267.117 c -1.974 -5.898 -3.699 -11.95 -5.123 -18.007 l 17.185 -4.037 c 1.3 5.527 2.872 11.052 4.675 16.425 L 63.736 267.117 z M 456.716 231.05 l -17.48 -2.45 c 0.786 -5.624 1.321 -11.346 1.59 -17.014 l 17.636 0.842 C 458.171 218.631 457.582 224.898 456.716 231.05 z M 55.188 230.707 c -0.85 -6.154 -1.423 -12.421 -1.702 -18.629 l 17.633 -0.796 c 0.259 5.67 0.781 11.392 1.559 17.011 L 55.188 230.707 z M 440.865 194.49 c -0.241 -5.658 -0.755 -11.382 -1.526 -17.014 l 17.498 -2.386 c 0.84 6.17 1.403 12.439 1.672 18.637 L 440.865 194.49 z M 71.129 194.186 l -17.638 -0.814 c 0.294 -6.213 0.865 -12.48 1.713 -18.621 l 17.49 2.414 C 71.915 182.776 71.39 188.502 71.129 194.186 z M 436.252 160.683 c -1.285 -5.532 -2.847 -11.059 -4.644 -16.433 l 16.755 -5.588 c 1.964 5.893 3.676 11.96 5.084 18.02 L 436.252 160.683 z M 75.809 160.371 l -17.193 -4.022 c 1.416 -6.044 3.133 -12.104 5.105 -18.004 l 16.748 5.591 C 78.663 149.322 77.102 154.851 75.809 160.371 z M 425.461 128.314 c -2.286 -5.181 -4.838 -10.335 -7.598 -15.299 l 15.437 -8.573 c 3.026 5.445 5.824 11.085 8.32 16.763 L 425.461 128.314 z M 86.625 128.015 l -16.156 -7.135 c 2.514 -5.686 5.317 -11.325 8.343 -16.75 l 15.424 8.591 C 91.479 117.677 88.911 122.821 86.625 128.015 z M 408.891 98.47 c -3.2 -4.685 -6.659 -9.277 -10.276 -13.65 l 13.601 -11.256 c 3.965 4.79 7.747 9.823 11.254 14.953 L 408.891 98.47 z M 103.229 98.206 L 88.67 88.222 c 3.517 -5.128 7.311 -10.15 11.282 -14.927 l 13.581 11.279 C 109.903 88.936 106.447 93.524 103.229 98.206 z M 387.133 72.163 c -4.004 -4.022 -8.246 -7.908 -12.595 -11.548 l 11.318 -13.548 c 4.764 3.981 9.405 8.236 13.793 12.641 L 387.133 72.163 z M 125.045 71.948 l -12.49 -12.483 c 4.393 -4.393 9.042 -8.637 13.824 -12.613 l 11.292 13.573 C 133.299 64.056 129.057 67.932 125.045 71.948 z M 360.926 50.273 c -4.672 -3.22 -9.549 -6.264 -14.49 -9.037 l 8.637 -15.398 c 5.417 3.039 10.762 6.372 15.882 9.907 L 360.926 50.273 z M 151.293 50.106 l -9.997 -14.548 c 5.115 -3.52 10.468 -6.845 15.89 -9.879 l 8.617 15.411 C 160.852 43.855 155.968 46.893 151.293 50.106 z M 331.174 33.574 c -5.179 -2.304 -10.537 -4.398 -15.905 -6.208 l 5.645 -16.727 c 5.891 1.987 11.758 4.278 17.441 6.81 L 331.174 33.574 z M 181.084 33.446 l -7.158 -16.143 c 5.691 -2.516 11.558 -4.797 17.446 -6.781 l 5.627 16.735 C 191.631 29.066 186.276 31.144 181.084 33.446 z M 298.852 22.658 c -5.519 -1.308 -11.167 -2.371 -16.783 -3.162 l 2.458 -17.485 c 6.154 0.868 12.342 2.035 18.394 3.466 L 298.852 22.658 z M 213.424 22.568 l -4.05 -17.185 c 6.052 -1.423 12.237 -2.58 18.391 -3.443 l 2.442 17.49 C 224.586 20.216 218.939 21.27 213.424 22.568 z M 265.075 17.881 l -0.778 -0.036 c -5.734 -0.259 -11.446 -0.253 -17.083 0.01 l -0.809 -17.638 c 6.162 -0.284 12.403 -0.292 18.706 -0.008 l 0.786 0.041 L 265.075 17.881 z" style="stroke: none; stroke-width: 1; stroke-dasharray: none; stroke-linecap: butt; stroke-linejoin: miter; stroke-miterlimit: 10; fill: #242D3C; fill-rule: nonzero; opacity: 1;" transform=" matrix(1 0 0 1 0 0) " stroke-linecap="round" />
</g>
  <g transform="translate(209.64 111.75) scale(1.31 1.31)">
   <text font-family="Cargo Bay" font-size="40" font-weight="normal" style="stroke: none; stroke-width: 1; stroke-dasharray: none; stroke-linecap: butt; stroke-linejoin: miter; stroke-miterlimit: 10; fill: #197b99; fill-rule: nonzero; opacity: 1;" ><tspan x="-52.23" y="8.98" style="stroke: none; stroke-width: 0; stroke-dasharray: none; stroke-linecap: butt; stroke-linejoin: miter; stroke-miterlimit: 4; fill: #197b99; fill-rule: ; opacity: 1;">T</tspan><tspan x="-27.79" y="8.98" style="stroke: none; stroke-width: 0; stroke-dasharray: none; stroke-linecap: butt; stroke-linejoin: miter; stroke-miterlimit: 4; fill: #197b99; fill-rule: ; opacity: 1;">Y</tspan><tspan x="1.09" y="8.98" style="stroke: none; stroke-width: 0; stroke-dasharray: none; stroke-linecap: butt; stroke-linejoin: miter; stroke-miterlimit: 4; fill: #197b99; fill-rule: ; opacity: 1;">P</tspan><tspan x="23.34" y="8.98" style="stroke: none; stroke-width: 0; stroke-dasharray: none; stroke-linecap: butt; stroke-linejoin: miter; stroke-miterlimit: 4; fill: #197b99; fill-rule: ; opacity: 1;">O</tspan></text>
 </g>
  <g transform="translate(204.74 143) scale(0.91 0.91)">
   <text font-family="Impossible - 0" font-size="40" font-weight="normal" style="stroke: none; stroke-width: 1; stroke-dasharray: none; stroke-linecap: butt; stroke-linejoin: miter; stroke-miterlimit: 10; fill: #cc6521; fill-rule: nonzero; opacity: 1;" ><tspan x="-89.8" y="8.98" style="stroke: none; stroke-width: 0; stroke-dasharray: none; stroke-linecap: butt; stroke-linejoin: miter; stroke-miterlimit: 4; fill: #cc6521; fill-rule: ; opacity: 1;">T</tspan><tspan x="-78.08" y="8.98" style="stroke: none; stroke-width: 0; stroke-dasharray: none; stroke-linecap: butt; stroke-linejoin: miter; stroke-miterlimit: 4; fill: #cc6521; fill-rule: ; opacity: 1;">e</tspan><tspan x="-64.96" y="8.98" style="stroke: none; stroke-width: 0; stroke-dasharray: none; stroke-linecap: butt; stroke-linejoin: miter; stroke-miterlimit: 4; fill: #cc6521; fill-rule: ; opacity: 1;">s</tspan><tspan x="-51.88" y="8.98" style="stroke: none; stroke-width: 0; stroke-dasharray: none; stroke-linecap: butt; stroke-linejoin: miter; stroke-miterlimit: 4; fill: #cc6521; fill-rule: ; opacity: 1;">t</tspan><tspan x="-43.32" y="8.98" style="stroke: none; stroke-width: 0; stroke-dasharray: none; stroke-linecap: butt; stroke-linejoin: miter; stroke-miterlimit: 4; fill: #cc6521; fill-rule: ; opacity: 1;"> </tspan><tspan x="-35.68" y="8.98" style="stroke: none; stroke-width: 0; stroke-dasharray: none; stroke-linecap: butt; stroke-linejoin: miter; stroke-miterlimit: 4; fill: #cc6521; fill-rule: ; opacity: 1;">y</tspan><tspan x="-23.56" y="8.98" style="stroke: none; stroke-width: 0; stroke-dasharray: none; stroke-linecap: butt; stroke-linejoin: miter; stroke-miterlimit: 4; fill: #cc6521; fill-rule: ; opacity: 1;">o</tspan><tspan x="-10.44" y="8.98" style="stroke: none; stroke-width: 0; stroke-dasharray: none; stroke-linecap: butt; stroke-linejoin: miter; stroke-miterlimit: 4; fill: #cc6521; fill-rule: ; opacity: 1;">u</tspan><tspan x="3.24" y="8.98" style="stroke: none; stroke-width: 0; stroke-dasharray: none; stroke-linecap: butt; stroke-linejoin: miter; stroke-miterlimit: 4; fill: #cc6521; fill-rule: ; opacity: 1;">r</tspan><tspan x="15.88" y="8.98" style="stroke: none; stroke-width: 0; stroke-dasharray: none; stroke-linecap: butt; stroke-linejoin: miter; stroke-miterlimit: 4; fill: #cc6521; fill-rule: ; opacity: 1;"> </tspan><tspan x="23.52" y="8.98" style="stroke: none; stroke-width: 0; stroke-dasharray: none; stroke-linecap: butt; stroke-linejoin: miter; stroke-miterlimit: 4; fill: #cc6521; fill-rule: ; opacity: 1;">s</tspan><tspan x="36.6" y="8.98" style="stroke: none; stroke-width: 0; stroke-dasharray: none; stroke-linecap: butt; stroke-linejoin: miter; stroke-miterlimit: 4; fill: #cc6521; fill-rule: ; opacity: 1;">p</tspan><tspan x="50" y="8.98" style="stroke: none; stroke-width: 0; stroke-dasharray: none; stroke-linecap: butt; stroke-linejoin: miter; stroke-miterlimit: 4; fill: #cc6521; fill-rule: ; opacity: 1;">e</tspan><tspan x="63.12" y="8.98" style="stroke: none; stroke-width: 0; stroke-dasharray: none; stroke-linecap: butt; stroke-linejoin: miter; stroke-miterlimit: 4; fill: #cc6521; fill-rule: ; opacity: 1;">e</tspan><tspan x="76.24" y="8.98" style="stroke: none; stroke-width: 0; stroke-dasharray: none; stroke-linecap: butt; stroke-linejoin: miter; stroke-miterlimit: 4; fill: #cc6521; fill-rule: ; opacity: 1;">d</tspan></text>
 </g>
<g style="stroke: none; stroke-width: 1; stroke-dasharray: none; stroke-linecap: butt; stroke-linejoin: miter; stroke-miterlimit: 10; fill: none; fill-rule: nonzero; opacity: 1;" transform="translate(45.45000000000005 28.709999999999987) scale(0.16 0.16)" >
  <circle cx="254" cy="254" r="254" style="stroke: none; stroke-width: 1; stroke-dasharray: none; stroke-linecap: butt; stroke-linejoin: miter; stroke-miterlimit: 10; fill: #E07D36; fill-rule: nonzero; opacity: 1;" transform="  matrix(1 0 0 1 0 0) "/>
  <path d="M 378.2 176.2 c -2.2 0 -4.2 0.2 -6.4 0.4 c 0 -0.2 0 -0.2 0 -0.4 c 0 -34 -27.6 -61.6 -61.6 -61.6 c -10 0 -19.4 2.4 -27.6 6.6 C 268.4 95.4 241 78 209.8 78 c -45.8 0 -83 37.2 -83 83 c 0 2.8 0.2 5.6 0.4 8.2 C 96.8 172.4 73 198 73 229.4 c 0 33.4 27 60.4 60.4 60.4 c 6.8 0 13.4 -1.2 19.6 -3.2 c 11 26.2 36.8 44.4 67 44.4 c 26.8 0 50 -14.4 62.6 -35.8 c 6.6 3.6 14 5.8 22.2 5.8 c 16.8 0 31.2 -9 39.2 -22.6 c 9.6 7.2 21.4 11.6 34.2 11.6 c 31.4 0 57 -25.4 57 -57 C 435 201.6 409.6 176.2 378.2 176.2 z" style="stroke: none; stroke-width: 1; stroke-dasharray: none; stroke-linecap: butt; stroke-linejoin: miter; stroke-miterlimit: 10; fill: #FFFFFF; fill-rule: nonzero; opacity: 1;" transform=" matrix(1 0 0 1 0 0) " stroke-linecap="round" />
  <path d="M 137 294 c -3.2 -6.4 -4.6 -13.6 -4 -20.8 c 0.2 -3.6 1 -6.6 2.4 -9 c 2.2 -4 6.2 -7.2 11.8 -9.4 h 0.2 c 8.2 -3.2 17.8 -4.4 29 -3.2 c 3.6 0.4 7.2 0.8 10.8 1.4 c 4 0.6 8 1.2 12 1.6 c 8.6 0.6 15.4 -0.4 21 -3.2 c 6.6 -3.4 10.8 -9.4 11 -15.6 c 0.2 -7.8 -6 -14.6 -12.2 -17.8 c -7.6 -3.8 -16.8 -4.6 -24.2 -5.2 l 0.4 -5.8 c 8 0.6 17.8 1.4 26.2 5.8 c 9.6 5 15.6 14 15.4 23 c -0.2 8.2 -5.8 16.2 -14.2 20.4 c -6.4 3.2 -14.4 4.6 -24 3.8 c -4.2 -0.4 -8.4 -1 -12.6 -1.6 c -3.4 -0.6 -7 -1 -10.4 -1.4 c -10.2 -1 -19 0 -26.2 2.8 h -0.2 c -4.4 1.8 -7.4 4 -9 6.8 c -1 1.6 -1.4 3.8 -1.6 6.6 c -0.4 6.2 0.8 12.4 3.4 18 L 137 294 z" style="stroke: none; stroke-width: 1; stroke-dasharray: none; stroke-linecap: butt; stroke-linejoin: miter; stroke-miterlimit: 10; fill: #2E4555; fill-rule: nonzero; opacity: 1;" transform=" matrix(1 0 0 1 0 0) " stroke-linecap="round" />
  <path d="M 146.2 293.4 l -11 4.4 l -2 -4.8 c -0.4 -1 0.2 -2.4 1.2 -2.8 l 7 -2.8 c 1 -0.4 2.4 0.2 2.8 1.2 L 146.2 293.4 z" style="stroke: none; stroke-width: 1; stroke-dasharray: none; stroke-linecap: butt; stroke-linejoin: miter; stroke-miterlimit: 10; fill: #0B2C48; fill-rule: nonzero; opacity: 1;" transform=" matrix(1 0 0 1 0 0) " stroke-linecap="round" />
  <path d="M 392.6 341.8 L 166.4 431 c -6.4 2.6 -13.6 -0.6 -16.2 -7 l -41.8 -106 c -2.6 -6.4 0.6 -13.6 7 -16.2 l 226.2 -89.2 c 6.4 -2.6 13.6 0.6 16.2 7 l 41.8 105.8 C 402 332 399 339.2 392.6 341.8 z" style="stroke: none; stroke-width: 1; stroke-dasharray: none; stroke-linecap: butt; stroke-linejoin: miter; stroke-miterlimit: 10; fill: #527F99; fill-rule: nonzero; opacity: 1;" transform=" matrix(1 0 0 1 0 0) " stroke-linecap="round" />
  <rect x="126.6" y="309.64" rx="0" ry="0" width="20.4" height="16.2" style="stroke: none; stroke-width: 1; stroke-dasharray: none; stroke-linecap: butt; stroke-linejoin: miter; stroke-miterlimit: 10; fill: #2E4555; fill-rule: nonzero; opacity: 1;" transform=" matrix(-0.9303 0.3669 -0.3669 -0.9303 380.6415 563.1297) "/>
  <rect x="155.22" y="298.42" rx="0" ry="0" width="20.4" height="16.2" style="stroke: none; stroke-width: 1; stroke-dasharray: none; stroke-linecap: butt; stroke-linejoin: miter; stroke-miterlimit: 10; fill: #2E4555; fill-rule: nonzero; opacity: 1;" transform=" matrix(-0.9303 0.3669 -0.3669 -0.9303 431.7714 530.97) "/>
  <rect x="183.85" y="287.21" rx="0" ry="0" width="20.4" height="16.2" style="stroke: none; stroke-width: 1; stroke-dasharray: none; stroke-linecap: butt; stroke-linejoin: miter; stroke-miterlimit: 10; fill: #2E4555; fill-rule: nonzero; opacity: 1;" transform=" matrix(-0.9303 0.3669 -0.3669 -0.9303 482.9044 498.8257) "/>
  <rect x="212.4" y="275.79" rx="0" ry="0" width="20.4" height="16.2" style="stroke: none; stroke-width: 1; stroke-dasharray: none; stroke-linecap: butt; stroke-linejoin: miter; stroke-miterlimit: 10; fill: #2E4555; fill-rule: nonzero; opacity: 1;" transform=" matrix(-0.9303 0.3669 -0.3669 -0.9303 533.8239 466.3099) "/>
  <rect x="240.83" y="264.65" rx="0" ry="0" width="20.4" height="16.2" style="stroke: none; stroke-width: 1; stroke-dasharray: none; stroke-linecap: butt; stroke-linejoin: miter; stroke-miterlimit: 10; fill: #2E4555; fill-rule: nonzero; opacity: 1;" transform=" matrix(-0.9303 0.3669 -0.3669 -0.9303 584.6246 434.3755) "/>
  <rect x="269.45" y="253.43" rx="0" ry="0" width="20.4" height="16.2" style="stroke: none; stroke-width: 1; stroke-dasharray: none; stroke-linecap: butt; stroke-linejoin: miter; stroke-miterlimit: 10; fill: #2E4555; fill-rule: nonzero; opacity: 1;" transform=" matrix(-0.9303 0.3669 -0.3669 -0.9303 635.7584 402.2151) "/>
  <rect x="298" y="242.02" rx="0" ry="0" width="20.4" height="16.2" style="stroke: none; stroke-width: 1; stroke-dasharray: none; stroke-linecap: butt; stroke-linejoin: miter; stroke-miterlimit: 10; fill: #2E4555; fill-rule: nonzero; opacity: 1;" transform=" matrix(-0.9303 0.3669 -0.3669 -0.9303 686.6771 369.7155) "/>
  <rect x="328.59" y="228.57" rx="0" ry="0" width="16.2" height="20.4" style="stroke: none; stroke-width: 1; stroke-dasharray: none; stroke-linecap: butt; stroke-linejoin: miter; stroke-miterlimit: 10; fill: #2E4555; fill-rule: nonzero; opacity: 1;" transform=" matrix(0.3669 0.9303 -0.9303 0.3669 435.2867 -162.0451) "/>
  <rect x="142.28" y="327.95" rx="0" ry="0" width="21.2" height="16.2" style="stroke: none; stroke-width: 1; stroke-dasharray: none; stroke-linecap: butt; stroke-linejoin: miter; stroke-miterlimit: 10; fill: #2E4555; fill-rule: nonzero; opacity: 1;" transform=" matrix(0.9303 -0.3669 0.3669 0.9303 -112.6308 79.5242) "/>
  <rect x="171.91" y="316.41" rx="0" ry="0" width="21.2" height="16.2" style="stroke: none; stroke-width: 1; stroke-dasharray: none; stroke-linecap: butt; stroke-linejoin: miter; stroke-miterlimit: 10; fill: #2E4555; fill-rule: nonzero; opacity: 1;" transform=" matrix(0.9303 -0.3669 0.3669 0.9303 -106.3297 89.5911) "/>
  <rect x="201.63" y="304.8" rx="0" ry="0" width="21.2" height="16.2" style="stroke: none; stroke-width: 1; stroke-dasharray: none; stroke-linecap: butt; stroke-linejoin: miter; stroke-miterlimit: 10; fill: #2E4555; fill-rule: nonzero; opacity: 1;" transform=" matrix(-0.9303 0.3669 -0.3669 -0.9303 524.454 526.1198) "/>
  <rect x="231.25" y="293.19" rx="0" ry="0" width="21.2" height="16.2" style="stroke: none; stroke-width: 1; stroke-dasharray: none; stroke-linecap: butt; stroke-linejoin: miter; stroke-miterlimit: 10; fill: #2E4555; fill-rule: nonzero; opacity: 1;" transform=" matrix(-0.9303 0.3669 -0.3669 -0.9303 577.3699 492.8386) "/>
  <rect x="260.81" y="281.39" rx="0" ry="0" width="21.2" height="16.2" style="stroke: none; stroke-width: 1; stroke-dasharray: none; stroke-linecap: butt; stroke-linejoin: miter; stroke-miterlimit: 10; fill: #2E4555; fill-rule: nonzero; opacity: 1;" transform=" matrix(-0.9303 0.3669 -0.3669 -0.9303 630.1029 459.2201) "/>
  <rect x="290.44" y="269.78" rx="0" ry="0" width="21.2" height="16.2" style="stroke: none; stroke-width: 1; stroke-dasharray: none; stroke-linecap: butt; stroke-linejoin: miter; stroke-miterlimit: 10; fill: #2E4555; fill-rule: nonzero; opacity: 1;" transform=" matrix(-0.9303 0.3669 -0.3669 -0.9303 683.0342 425.9359) "/>
  <rect x="319.99" y="257.98" rx="0" ry="0" width="21.2" height="16.2" style="stroke: none; stroke-width: 1; stroke-dasharray: none; stroke-linecap: butt; stroke-linejoin: miter; stroke-miterlimit: 10; fill: #2E4555; fill-rule: nonzero; opacity: 1;" transform=" matrix(-0.9303 0.3669 -0.3669 -0.9303 735.7518 392.3203) "/>
  <rect x="143.82" y="353.22" rx="0" ry="0" width="20.4" height="16.2" style="stroke: none; stroke-width: 1; stroke-dasharray: none; stroke-linecap: butt; stroke-linejoin: miter; stroke-miterlimit: 10; fill: #2E4555; fill-rule: nonzero; opacity: 1;" transform=" matrix(-0.9303 0.3669 -0.3669 -0.9303 429.8666 640.9383) "/>
  <rect x="172.44" y="342.01" rx="0" ry="0" width="20.4" height="16.2" style="stroke: none; stroke-width: 1; stroke-dasharray: none; stroke-linecap: butt; stroke-linejoin: miter; stroke-miterlimit: 10; fill: #2E4555; fill-rule: nonzero; opacity: 1;" transform=" matrix(-0.9303 0.3669 -0.3669 -0.9303 480.9918 608.7955) "/>
  <rect x="200.98" y="330.61" rx="0" ry="0" width="20.4" height="16.2" style="stroke: none; stroke-width: 1; stroke-dasharray: none; stroke-linecap: butt; stroke-linejoin: miter; stroke-miterlimit: 10; fill: #2E4555; fill-rule: nonzero; opacity: 1;" transform=" matrix(-0.9303 0.3669 -0.3669 -0.9303 531.9056 576.3127) "/>
  <rect x="229.43" y="319.46" rx="0" ry="0" width="20.4" height="16.2" style="stroke: none; stroke-width: 1; stroke-dasharray: none; stroke-linecap: butt; stroke-linejoin: miter; stroke-miterlimit: 10; fill: #2E4555; fill-rule: nonzero; opacity: 1;" transform=" matrix(-0.9303 0.3669 -0.3669 -0.9303 582.7335 544.3532) "/>
  <rect x="258.05" y="308.24" rx="0" ry="0" width="20.4" height="16.2" style="stroke: none; stroke-width: 1; stroke-dasharray: none; stroke-linecap: butt; stroke-linejoin: miter; stroke-miterlimit: 10; fill: #2E4555; fill-rule: nonzero; opacity: 1;" transform=" matrix(-0.9303 0.3669 -0.3669 -0.9303 633.8495 512.2042) "/>
  <rect x="286.6" y="296.84" rx="0" ry="0" width="20.4" height="16.2" style="stroke: none; stroke-width: 1; stroke-dasharray: none; stroke-linecap: butt; stroke-linejoin: miter; stroke-miterlimit: 10; fill: #2E4555; fill-rule: nonzero; opacity: 1;" transform=" matrix(-0.9303 0.3669 -0.3669 -0.9303 684.7757 479.7231) "/>
  <rect x="315.19" y="285.55" rx="0" ry="0" width="20.4" height="16.2" style="stroke: none; stroke-width: 1; stroke-dasharray: none; stroke-linecap: butt; stroke-linejoin: miter; stroke-miterlimit: 10; fill: #2E4555; fill-rule: nonzero; opacity: 1;" transform=" matrix(0.9303 -0.3669 0.3669 0.9303 -85.0468 139.858) "/>
  <rect x="343.67" y="274.23" rx="0" ry="0" width="20.4" height="16.2" style="stroke: none; stroke-width: 1; stroke-dasharray: none; stroke-linecap: butt; stroke-linejoin: miter; stroke-miterlimit: 10; fill: #2E4555; fill-rule: nonzero; opacity: 1;" transform=" matrix(0.9303 -0.3669 0.3669 0.9303 -78.9047 149.518) "/>
  <rect x="159.5" y="371.64" rx="0" ry="0" width="21.2" height="16.2" style="stroke: none; stroke-width: 1; stroke-dasharray: none; stroke-linecap: butt; stroke-linejoin: miter; stroke-miterlimit: 10; fill: #2E4555; fill-rule: nonzero; opacity: 1;" transform=" matrix(0.9303 -0.3669 0.3669 0.9303 -127.4616 88.8874) "/>
  <rect x="189.06" y="359.92" rx="0" ry="0" width="21.2" height="16.2" style="stroke: none; stroke-width: 1; stroke-dasharray: none; stroke-linecap: butt; stroke-linejoin: miter; stroke-miterlimit: 10; fill: #2E4555; fill-rule: nonzero; opacity: 1;" transform=" matrix(0.9303 -0.3669 0.3669 0.9303 -121.0974 98.9144) "/>
  <rect x="218.62" y="348.17" rx="0" ry="0" width="21.2" height="16.2" style="stroke: none; stroke-width: 1; stroke-dasharray: none; stroke-linecap: butt; stroke-linejoin: miter; stroke-miterlimit: 10; fill: #2E4555; fill-rule: nonzero; opacity: 1;" transform=" matrix(0.9303 -0.3669 0.3669 0.9303 -114.7258 108.94) "/>
  <rect x="248.39" y="336.59" rx="0" ry="0" width="21.2" height="16.2" style="stroke: none; stroke-width: 1; stroke-dasharray: none; stroke-linecap: butt; stroke-linejoin: miter; stroke-miterlimit: 10; fill: #2E4555; fill-rule: nonzero; opacity: 1;" transform=" matrix(-0.9303 0.3669 -0.3669 -0.9303 626.3851 570.3149) "/>
  <rect x="278.03" y="324.98" rx="0" ry="0" width="21.2" height="16.2" style="stroke: none; stroke-width: 1; stroke-dasharray: none; stroke-linecap: butt; stroke-linejoin: miter; stroke-miterlimit: 10; fill: #2E4555; fill-rule: nonzero; opacity: 1;" transform=" matrix(-0.9303 0.3669 -0.3669 -0.9303 679.3418 537.038) "/>
  <rect x="307.65" y="313.37" rx="0" ry="0" width="21.2" height="16.2" style="stroke: none; stroke-width: 1; stroke-dasharray: none; stroke-linecap: butt; stroke-linejoin: miter; stroke-miterlimit: 10; fill: #2E4555; fill-rule: nonzero; opacity: 1;" transform=" matrix(-0.9303 0.3669 -0.3669 -0.9303 732.2584 503.7607) "/>
  <rect x="337.18" y="301.53" rx="0" ry="0" width="21.2" height="16.2" style="stroke: none; stroke-width: 1; stroke-dasharray: none; stroke-linecap: butt; stroke-linejoin: miter; stroke-miterlimit: 10; fill: #2E4555; fill-rule: nonzero; opacity: 1;" transform=" matrix(0.9303 -0.3669 0.3669 0.9303 -89.3479 149.1895) "/>
  <rect x="161" y="396.61" rx="0" ry="0" width="20.4" height="16.2" style="stroke: none; stroke-width: 1; stroke-dasharray: none; stroke-linecap: butt; stroke-linejoin: miter; stroke-miterlimit: 10; fill: #2E4555; fill-rule: nonzero; opacity: 1;" transform=" matrix(0.9303 -0.3669 0.3669 0.9303 -136.5434 91.0331) "/>
  <rect x="189.56" y="385.49" rx="0" ry="0" width="20.4" height="16.2" style="stroke: none; stroke-width: 1; stroke-dasharray: none; stroke-linecap: butt; stroke-linejoin: miter; stroke-miterlimit: 10; fill: #2E4555; fill-rule: nonzero; opacity: 1;" transform=" matrix(0.9303 -0.3669 0.3669 0.9303 -130.4718 100.7344) "/>
  <polygon points="273,356 263.4,359.8 244.4,367.2 235,371 230.8,372.6 215.8,378.6 221.8,393.6 236.8,387.6 240.8,386 250.4,382.2 269.4,374.8 278.8,371 298,363.4 326.4,352.2 320.6,337.2 292,348.6 " style="stroke: none; stroke-width: 1; stroke-dasharray: none; stroke-linecap: butt; stroke-linejoin: miter; stroke-miterlimit: 10; fill: #2E4555; fill-rule: nonzero; opacity: 1;" transform="  matrix(1 0 0 1 0 0) "/>
  <rect x="332.31" y="329.04" rx="0" ry="0" width="20.4" height="16.2" style="stroke: none; stroke-width: 1; stroke-dasharray: none; stroke-linecap: butt; stroke-linejoin: miter; stroke-miterlimit: 10; fill: #2E4555; fill-rule: nonzero; opacity: 1;" transform=" matrix(0.9303 -0.3669 0.3669 0.9303 -99.8085 149.1725) "/>
  <rect x="360.81" y="317.74" rx="0" ry="0" width="20.4" height="16.2" style="stroke: none; stroke-width: 1; stroke-dasharray: none; stroke-linecap: butt; stroke-linejoin: miter; stroke-miterlimit: 10; fill: #2E4555; fill-rule: nonzero; opacity: 1;" transform=" matrix(0.9303 -0.3669 0.3669 0.9303 -93.6724 158.8413) "/>
</g>
</svg>